<?xml version="1.0" encoding="UTF-8"?>
<svg id="Layer_1" xmlns="http://www.w3.org/2000/svg" version="1.1" viewBox="0 0 133.3 48.4">
  <!-- Generator: Adobe Illustrator 29.1.0, SVG Export Plug-In . SVG Version: 2.1.0 Build 142)  -->
  <defs>
    <style>
      .st0 {
        fill: #ec5a23;
      }

      .st1 {
        fill: #fff;
      }
    </style>
  </defs>
  <path class="st1" d="M121.8,38.4c-6.3,3.8-9.7,1.7-10.5,1-.2-.2-.5-.3-.8-.4-.6-.2-.9,0-1,.2v8.4h-1v-8.4s-.4-.4-1-.2c-.3,0-.5.2-.8.4-.8.7-4.2,2.8-10.5-1,0,0-7.1-4.3-7.3-13.6,0,0,2.2.8,3.6,1,0,0,13,.9,14.5,10.6,0,.2.7,2.2,1.4,1.4v-11.1c0-.9-.7-1.5-1.6-1.7h0s-12-1.5-13.8-9.6c0-.7,0-1.5.3-2.1.7-1.1,1.9-1.7,3.1-1.4-.4-1.2,0-2.5.9-3.3s2.4-.9,3.4-.3c0-1.2.7-2.4,1.9-2.9,1.2-.4,2.5,0,3.3.9.4-1.2,1.5-2,2.8-2s2.4.8,2.8,2c.8-1,2.1-1.4,3.3-.9,1.2.4,2,1.6,1.9,2.9,1.1-.6,2.4-.6,3.4.3,1,.8,1.3,2.2.9,3.3,1.2-.2,2.5.3,3.1,1.4.4.7.5,1.4.3,2.1-1.8,8.1-13.7,9.6-13.8,9.6h0c-.9.1-1.6.8-1.6,1.7v11.1c.8.7,1.4-1.2,1.4-1.4,1.5-9.7,14.5-10.6,14.5-10.6,1.4-.2,3.6-1,3.6-1-.2,9.3-7.4,13.6-7.3,13.6,0,0,.6,0,.6,0Z"/>
  <g>
    <path class="st0" d="M11.7,28.2v1.9c0,.3-.2.6-.4.8-.2.2-.5.3-.9.3s-.7,0-1-.3c-.2-.2-.4-.4-.4-.7s-.1-.6-.1-1h0v-3.3H0v4c.2,2.5,1,4.6,2.5,6.2,1.7,1.8,4.4,2.8,8,2.8h5.7c1-.4,1.8-.9,2.5-1.5,1.8-1.6,2.7-4.4,2.7-8.3V10.6h-9.7v17.5h0Z"/>
    <path class="st0" d="M33.2,10.6l-10.5,27.5h9.8l1.2-3.7h7.5l1.1,3.7h10.2l-10.3-27.5s-9,0-9,0ZM36,27.5l1.7-5.1,1.5,5.1h-3.2Z"/>
    <path class="st0" d="M75.4,23.4c-.8-.6-1.6-1.1-2.6-1.6-1-.4-2-.7-3-1-.9-.2-1.7-.4-2.6-.6-.9-.1-1.6-.3-2.3-.5-.7-.2-1.2-.4-1.7-.6-.4-.3-.7-.6-.7-1,0-.6.3-.9.8-.9s1-.1,1.4-.1h1c.4,0,.7.2,1,.5.2,0,.4.2.5.5v.2h0v1.6h9.4c0-1.9-.4-3.4-1.1-4.7s-1.6-2.3-2.6-3c-1.1-.8-2.3-1.3-3.7-1.6-1.4-.3-2.9-.5-4.5-.5s-.8,0-1.2,0c-1.1,0-2.1.2-3.1.5-.4,0-.7.2-1,.3-1,.3-1.9.8-2.7,1.4-.6.4-1.1.8-1.5,1.3s-.8,1-1.1,1.5c-.2.3-.3.6-.4.9-.4,1-.6,2.1-.6,3.3s.3,2.6.9,3.5c.6.9,1.4,1.7,2.3,2.3h.2c.9.6,1.8,1.1,2.9,1.4,1.1.4,2.3.7,3.4,1,1,.3,1.9.5,2.6.7s1.2.3,1.6.5c.4.1.7.3.8.5.2.2.2.4.2.7,0,.7-.3,1.2-1,1.4-.6.2-1.2.3-1.8.3s-1.3,0-1.9-.2c-.7-.2-1.1-.6-1.4-1.2,0-.2,0-.4-.2-.8v-1.4h-9.7c0,1.6.2,3,.7,4.1.5,1.1,1.1,2.1,1.8,2.9.7.8,1.6,1.4,2.5,1.9s1.9.9,2.8,1.1c.9.3,1.8.4,2.6.5h2c1.6,0,3.2-.2,4.7-.5,1.6-.3,3-.9,4.2-1.6,1.2-.8,2.3-1.7,3-3,.8-1.2,1.2-2.8,1.2-4.6s-.2-2.5-.7-3.4c-.4-.9-1.1-1.7-1.8-2.3l.4.2h0Z"/>
    <path class="st0" d="M109.1,0C95.7,0,84.9,10.8,84.9,24.2s10.8,24.2,24.2,24.2,24.2-10.8,24.2-24.2S122.5,0,109.1,0ZM121.8,38.4c-6.3,3.8-9.7,1.7-10.5,1-.2-.2-.5-.3-.8-.4-.6-.2-.9,0-1,.2v8.4h-1v-8.4s-.4-.4-1-.2c-.3,0-.5.2-.8.4-.8.7-4.2,2.8-10.5-1,0,0-7.1-4.3-7.3-13.6,0,0,2.2.8,3.6,1,0,0,13,.9,14.5,10.6,0,.2.7,2.2,1.4,1.4v-11.1c0-.9-.7-1.5-1.6-1.7h0s-12-1.5-13.8-9.6c0-.7,0-1.5.3-2.1.7-1.1,1.9-1.7,3.1-1.4-.4-1.2,0-2.5.9-3.3s2.4-.9,3.4-.3c0-1.2.7-2.4,1.9-2.9,1.2-.4,2.5,0,3.3.9.4-1.2,1.5-2,2.8-2s2.4.8,2.8,2c.8-1,2.1-1.4,3.3-.9,1.2.4,2,1.6,1.9,2.9,1.1-.6,2.4-.6,3.4.3,1,.8,1.3,2.2.9,3.3,1.2-.2,2.5.3,3.1,1.4.4.7.5,1.4.3,2.1-1.8,8.1-13.7,9.6-13.8,9.6h0c-.9.1-1.6.8-1.6,1.7v11.1c.8.7,1.4-1.2,1.4-1.4,1.5-9.7,14.5-10.6,14.5-10.6,1.4-.2,3.6-1,3.6-1-.2,9.3-7.4,13.6-7.3,13.6,0,0,.6,0,.6,0Z"/>
  </g>
</svg>